<svg width="437" height="225" viewBox="0 0 437 225" fill="none" xmlns="http://www.w3.org/2000/svg">
<path d="M0.0580279 0.383997H24.133V29.702H46.924V0.383997H71.106V74H46.924V45.11H24.133V74H0.0580279V0.383997ZM110.596 74.856C104.675 74.856 99.3964 73.679 94.7597 71.325C90.1944 68.8997 86.6277 65.6183 84.0597 61.481C81.4917 57.2723 80.2077 52.5287 80.2077 47.25C80.2077 41.8287 81.5274 37.0137 84.1667 32.805C86.806 28.5963 90.3727 25.3507 94.8667 23.068C99.3607 20.7853 104.354 19.644 109.847 19.644C115.125 19.644 119.619 20.821 123.329 23.175C127.109 25.4577 129.927 28.5963 131.782 32.591C133.636 36.5143 134.564 40.937 134.564 45.859C134.564 47.143 134.492 48.0703 134.35 48.641L102.25 52.814C103.106 55.3107 104.497 57.1297 106.423 58.271C108.349 59.341 110.881 59.876 114.02 59.876C118.87 59.876 124.113 58.6277 129.749 56.131L132.424 70.469C125.79 73.3937 118.514 74.856 110.596 74.856ZM117.979 39.332C116.837 34.838 114.127 32.591 109.847 32.591C107.279 32.591 105.246 33.554 103.748 35.48C102.25 37.406 101.465 39.9027 101.394 42.97L117.979 39.332ZM165.986 74.856C161.349 74.856 156.998 73.6433 152.932 71.218C148.937 68.7213 145.727 65.3687 143.302 61.16C140.876 56.88 139.664 52.1363 139.664 46.929C139.664 41.793 140.876 37.1563 143.302 33.019C145.727 28.8103 148.973 25.529 153.039 23.175C157.105 20.821 161.42 19.644 165.986 19.644C169.695 19.644 173.119 20.6783 176.258 22.747C179.468 24.8157 181.893 27.9187 183.534 32.056V19.644H206.004V74H183.534V64.049C179.967 71.2537 174.118 74.856 165.986 74.856ZM172.941 57.95C175.794 57.95 178.219 56.9513 180.217 54.954C182.285 52.8853 183.391 50.46 183.534 47.678V46.822C183.391 43.9687 182.25 41.5433 180.11 39.546C178.041 37.5487 175.651 36.55 172.941 36.55C169.945 36.55 167.377 37.62 165.237 39.76C163.168 41.8287 162.134 44.3253 162.134 47.25C162.134 50.246 163.204 52.7783 165.344 54.847C167.484 56.9157 170.016 57.95 172.941 57.95ZM235.674 74.856C229.61 74.856 224.902 72.9657 221.55 69.185C218.268 65.333 216.628 60.09 216.628 53.456V3.487L239.205 0.169994V51.851C239.205 53.8483 239.668 55.3107 240.596 56.238C241.594 57.094 243.306 57.522 245.732 57.522C247.515 57.522 249.263 57.094 250.975 56.238L251.724 71.218C246.944 73.6433 241.594 74.856 235.674 74.856ZM279.668 74.856C273.391 74.856 268.505 73.0727 265.009 69.506C261.514 65.868 259.766 60.8747 259.766 54.526V33.661H252.918V20.393H261.371L271.322 0.169994H282.129V20.393H294.541V33.661H282.129V51.851C282.129 53.6343 282.7 55.0253 283.841 56.024C284.983 57.0227 286.588 57.522 288.656 57.522C290.582 57.522 292.33 57.094 293.899 56.238L294.755 71.218C292.972 72.288 290.654 73.1797 287.8 73.893C285.018 74.535 282.308 74.856 279.668 74.856ZM302.734 3.487L325.311 0.169994V31.414C326.881 27.6333 329.235 24.7443 332.373 22.747C335.583 20.6783 339.435 19.644 343.929 19.644C350.777 19.644 356.127 22.105 359.979 27.027C363.903 31.8777 365.864 38.6187 365.864 47.25V74H343.394V45.003C343.394 41.9357 342.717 39.5817 341.361 37.941C340.077 36.3003 338.258 35.48 335.904 35.48C334.192 35.48 332.516 36.0507 330.875 37.192C329.235 38.262 327.879 39.8313 326.809 41.9C325.811 43.9687 325.311 46.3227 325.311 48.962V74H302.734V3.487ZM404.236 98.503C400.313 98.503 396.568 98.1107 393.001 97.326L394.713 81.49C397.495 81.918 400.063 82.132 402.417 82.132C406.626 82.132 409.836 80.848 412.047 78.28C414.259 75.7833 415.4 71.0397 415.471 64.049C411.762 71.1823 405.806 74.749 397.602 74.749C390.683 74.749 385.262 72.3237 381.338 67.473C377.486 62.551 375.56 55.7743 375.56 47.143V20.393H398.03V50.46C398.03 52.8853 398.708 54.9183 400.063 56.559C401.419 58.1283 403.273 58.913 405.627 58.913C408.053 58.913 410.014 57.8787 411.512 55.81C413.082 53.7413 413.866 51.0307 413.866 47.678V20.393H436.443V60.411C436.443 72.823 433.661 82.2747 428.097 88.766C422.533 95.2573 414.58 98.503 404.236 98.503ZM81.0161 224.712C73.8827 224.712 67.3914 223.036 61.5421 219.683C55.7641 216.259 51.1631 211.622 47.7391 205.773C44.3864 199.852 42.7101 193.325 42.7101 186.192C42.7101 178.916 44.3507 172.353 47.6321 166.504C50.9134 160.655 55.4074 156.089 61.1141 152.808C66.8207 149.455 73.2407 147.779 80.3741 147.779C84.2261 147.779 88.0067 148.243 91.7161 149.17C95.4254 150.097 98.5997 151.417 101.239 153.129L98.3501 169.714C93.2141 167.788 88.5774 166.825 84.4401 166.825C78.7334 166.825 74.3464 168.501 71.2791 171.854C68.2117 175.135 66.6781 179.879 66.6781 186.085C66.6781 192.148 68.2831 196.892 71.4931 200.316C74.7744 203.669 79.3041 205.345 85.0821 205.345C87.2934 205.345 89.3621 205.131 91.2881 204.703C93.2141 204.275 95.5681 203.49 98.3501 202.349L101.346 219.255C95.1401 222.893 88.3634 224.712 81.0161 224.712ZM109.319 152.487L131.896 149.17V180.414C133.466 176.633 135.82 173.744 138.958 171.747C142.168 169.678 146.02 168.644 150.514 168.644C157.362 168.644 162.712 171.105 166.564 176.027C170.488 180.878 172.449 187.619 172.449 196.25V223H149.979V194.003C149.979 190.936 149.302 188.582 147.946 186.941C146.662 185.3 144.843 184.48 142.489 184.48C140.777 184.48 139.101 185.051 137.46 186.192C135.82 187.262 134.464 188.831 133.394 190.9C132.396 192.969 131.896 195.323 131.896 197.962V223H109.319V152.487ZM206.424 223.856C201.788 223.856 197.436 222.643 193.37 220.218C189.376 217.721 186.166 214.369 183.74 210.16C181.315 205.88 180.102 201.136 180.102 195.929C180.102 190.793 181.315 186.156 183.74 182.019C186.166 177.81 189.411 174.529 193.477 172.175C197.543 169.821 201.859 168.644 206.424 168.644C210.134 168.644 213.558 169.678 216.696 171.747C219.906 173.816 222.332 176.919 223.972 181.056V168.644H246.442V223H223.972V213.049C220.406 220.254 214.556 223.856 206.424 223.856ZM213.379 206.95C216.233 206.95 218.658 205.951 220.655 203.954C222.724 201.885 223.83 199.46 223.972 196.678V195.822C223.83 192.969 222.688 190.543 220.548 188.546C218.48 186.549 216.09 185.55 213.379 185.55C210.383 185.55 207.815 186.62 205.675 188.76C203.607 190.829 202.572 193.325 202.572 196.25C202.572 199.246 203.642 201.778 205.782 203.847C207.922 205.916 210.455 206.95 213.379 206.95ZM257.28 170.142H279.857V181.056C281.498 176.847 283.709 173.744 286.491 171.747C289.345 169.678 292.662 168.644 296.442 168.644L299.545 186.085C292.769 186.085 287.775 186.834 284.565 188.332C281.427 189.759 279.857 192.041 279.857 195.18V223H257.28V170.142ZM328.466 223.856C322.189 223.856 317.302 222.073 313.807 218.506C310.312 214.868 308.564 209.875 308.564 203.526V182.661H301.716V169.393H310.169L320.12 149.17H330.927V169.393H343.339V182.661H330.927V200.851C330.927 202.634 331.498 204.025 332.639 205.024C333.78 206.023 335.385 206.522 337.454 206.522C339.38 206.522 341.128 206.094 342.697 205.238L343.553 220.218C341.77 221.288 339.451 222.18 336.598 222.893C333.816 223.535 331.105 223.856 328.466 223.856ZM370.043 223.856C362.553 223.856 355.99 222.75 350.355 220.539L352.816 207.806C357.952 209.661 362.945 210.588 367.796 210.588C371.363 210.588 373.146 209.589 373.146 207.592C373.146 206.593 372.611 205.773 371.541 205.131C370.542 204.489 368.616 203.918 365.763 203.419C359.842 202.278 355.562 200.352 352.923 197.641C350.355 194.93 349.071 191.078 349.071 186.085C349.356 180.45 351.603 176.134 355.812 173.138C360.021 170.142 365.763 168.644 373.039 168.644C376.748 168.644 379.923 168.894 382.562 169.393C385.273 169.821 387.734 170.57 389.945 171.64L387.698 184.373C385.629 183.588 383.347 182.982 380.85 182.554C378.425 182.126 376.392 181.912 374.751 181.912C372.326 181.912 370.649 182.162 369.722 182.661C368.795 183.16 368.331 183.838 368.331 184.694C368.331 186.263 370.114 187.369 373.681 188.011C380.172 189.152 385.023 191.15 388.233 194.003C391.443 196.856 393.048 200.744 393.048 205.666C393.048 211.301 391.051 215.76 387.056 219.041C383.133 222.251 377.462 223.856 370.043 223.856Z" fill="url(#paint0_linear_338_2)"/>
<defs>
<linearGradient id="paint0_linear_338_2" x1="217.5" y1="-45" x2="217.5" y2="183" gradientUnits="userSpaceOnUse">
<stop offset="0.1649" stop-color="#103F67"/>
<stop offset="0.165" stop-color="#103F67"/>
<stop offset="0.335" stop-color="#4893B2"/>
<stop offset="0.565" stop-color="#103F67"/>
<stop offset="0.78" stop-color="#4791B0"/>
<stop offset="0.82" stop-color="#16476F"/>
<stop offset="0.8201" stop-color="#16476F"/>
<stop offset="0.9999" stop-color="#4893B2"/>
</linearGradient>
</defs>
</svg>
