<svg width="247" height="92" viewBox="0 0 247 92" fill="none" xmlns="http://www.w3.org/2000/svg">
<path d="M116.788 46.5963L112.224 40.7443V52.3643H108.612V33.3243H110.908L117.348 42.1163L123.2 33.3243H125.412V52.3643H121.744V41.3883L118.188 46.4003L116.788 46.5963ZM131.281 32.7643C131.86 32.7643 132.345 32.9603 132.737 33.3523C133.148 33.7443 133.353 34.2296 133.353 34.8083C133.353 35.3869 133.148 35.8723 132.737 36.2643C132.345 36.6563 131.86 36.8523 131.281 36.8523C130.721 36.8523 130.245 36.6563 129.853 36.2643C129.461 35.8723 129.265 35.3869 129.265 34.8083C129.265 34.2296 129.461 33.7443 129.853 33.3523C130.245 32.9603 130.721 32.7643 131.281 32.7643ZM133.101 38.7843V52.3643H129.461V38.7843H133.101ZM145.025 52.0843C144.726 52.3269 144.297 52.5229 143.737 52.6723C143.196 52.8403 142.71 52.9243 142.281 52.9243C140.601 52.9243 139.276 52.5043 138.305 51.6643C137.353 50.8056 136.877 49.5923 136.877 48.0243V41.6123H135.057V38.8123H136.877V35.5923L140.489 34.9483V38.8123H142.953L144.073 41.6123H140.489V47.3803C140.489 48.0896 140.657 48.6776 140.993 49.1443C141.329 49.5923 141.824 49.8163 142.477 49.8163C142.72 49.8163 142.962 49.7883 143.205 49.7323C143.448 49.6763 143.7 49.5829 143.961 49.4523L145.025 52.0843ZM151.271 33.1843V41.3883H158.775V33.3243H162.387V52.3643H158.775V44.3003H151.271V52.3643H147.659V33.3243L151.271 33.1843ZM173.512 52.7003C171.16 52.7003 169.303 52.0563 167.94 50.7683C166.596 49.4803 165.924 47.7536 165.924 45.5883C165.924 43.4229 166.531 41.6869 167.744 40.3803C168.976 39.0736 170.647 38.4203 172.756 38.4203C174.884 38.4203 176.443 39.1296 177.432 40.5483C178.44 41.9483 178.944 43.6096 178.944 45.5323V46.6523H169.788C169.956 47.5483 170.367 48.2669 171.02 48.8083C171.674 49.3309 172.532 49.5923 173.596 49.5923C174.212 49.5923 174.763 49.5176 175.248 49.3683C175.752 49.2003 176.331 48.9669 176.984 48.6683L178.048 51.3003C177.414 51.7856 176.639 52.1403 175.724 52.3643C174.828 52.5883 174.091 52.7003 173.512 52.7003ZM175.5 44.2163C175.314 43.3016 174.978 42.6296 174.492 42.2003C174.007 41.7523 173.4 41.5283 172.672 41.5283C171.926 41.5283 171.3 41.7616 170.796 42.2283C170.292 42.6763 169.966 43.3389 169.816 44.2163H175.5ZM188.77 52.7003C186.418 52.7003 184.561 52.0563 183.198 50.7683C181.854 49.4803 181.182 47.7536 181.182 45.5883C181.182 43.4229 181.789 41.6869 183.002 40.3803C184.234 39.0736 185.905 38.4203 188.014 38.4203C190.142 38.4203 191.701 39.1296 192.69 40.5483C193.698 41.9483 194.202 43.6096 194.202 45.5323V46.6523H185.046C185.214 47.5483 185.625 48.2669 186.278 48.8083C186.931 49.3309 187.79 49.5923 188.854 49.5923C189.47 49.5923 190.021 49.5176 190.506 49.3683C191.01 49.2003 191.589 48.9669 192.242 48.6683L193.306 51.3003C192.671 51.7856 191.897 52.1403 190.982 52.3643C190.086 52.5883 189.349 52.7003 188.77 52.7003ZM190.758 44.2163C190.571 43.3016 190.235 42.6296 189.75 42.2003C189.265 41.7523 188.658 41.5283 187.93 41.5283C187.183 41.5283 186.558 41.7616 186.054 42.2283C185.55 42.6763 185.223 43.3389 185.074 44.2163H190.758Z" fill="white"/>
<path d="M94.5958 45.6555C94.5958 47.6509 92.9781 49.2685 90.9827 49.2685C88.9873 49.2685 87.3697 47.6509 87.3697 45.6555C87.3697 43.6601 88.9873 42.0425 90.9827 42.0425C92.9781 42.0425 94.5958 43.6601 94.5958 45.6555Z" fill="white"/>
<circle cx="209.884" cy="45.6555" r="3.61303" fill="white"/>
<path d="M21.656 55.527C20.1028 55.5202 18.5492 55.5294 16.9966 55.4924C16.7059 55.4855 16.2882 55.3822 16.1514 55.1734C14.8828 53.2386 13.6631 51.2709 12.3394 49.1703C14.6644 49.1703 16.8468 49.1703 19.1451 49.1703C18.8681 48.5871 18.6277 48.1453 18.443 47.6807C17.7332 45.8954 18.1368 44.1668 18.7756 42.4741C20.0208 39.1745 20.1327 39.9775 18.4014 37.0018C16.8954 34.4136 17.1975 32.1779 19.1753 29.9369C19.87 29.1497 20.5109 28.311 21.1414 27.4688C22.5949 25.5271 24.3049 25.3246 26.1062 26.9147C26.3075 27.0925 26.509 27.2877 26.6516 27.5132C27.261 28.4767 27.9604 28.7402 29.1305 28.3576C31.8208 27.4782 33.1106 28.0806 34.3053 30.7094C34.8121 31.8245 35.5726 32.2835 36.6807 32.455C37.5323 32.5868 38.4223 32.7041 39.1941 33.0559C39.9187 33.3862 40.2576 33.1087 40.7056 32.6491C41.8793 31.4451 43.2362 30.5688 44.9121 30.2141C46.3524 29.9092 47.6391 30.2188 48.8279 31.0126C49.3207 31.3417 49.766 31.6292 50.3784 31.3721C50.5351 31.3063 50.733 31.3282 50.9116 31.3313C52.2808 31.3548 53.0988 30.8549 53.4661 29.35C53.8503 27.7759 55.212 27.2519 56.7288 27.7713C57.0111 27.868 57.2991 27.9628 57.5601 28.1046C58.1044 28.4002 58.462 28.2558 58.6901 27.6898C58.7575 27.5224 58.8503 27.3649 58.9377 27.2064C59.9868 25.3026 61.1976 25.0061 62.9696 26.2511C63.6654 26.7399 64.2596 27.2559 65.21 26.6581C66.0905 26.1044 67.1157 25.6377 68.1339 26.3913C69.2871 27.245 69.2924 28.4909 69.1122 29.7671C69.0954 29.8857 69.0505 30.0009 69.0126 30.1156C68.4122 31.9374 68.2383 33.7323 68.933 35.6081C69.4231 36.9315 69.2172 38.2948 68.3681 39.6219C68.8542 39.7804 69.2611 39.912 69.6672 40.0457C71.0868 40.5133 71.6735 41.5701 71.4592 43.0618C71.3831 43.5916 71.3807 44.2429 71.6187 44.688C72.3774 46.1074 72.3573 47.3871 71.3069 48.6247C71.2132 48.7352 71.1515 48.8736 71.009 49.107C73.793 49.107 76.4864 49.107 79.3831 49.107C78.9365 49.8345 78.5908 50.4104 78.2326 50.9782C77.4123 52.2784 76.5697 53.5646 75.7706 54.8779C75.4881 55.3423 75.1628 55.5335 74.6145 55.5197C73.1516 55.4831 71.6872 55.5097 70.056 55.5108C55.6601 55.5087 41.4317 55.5063 27.2033 55.5065C25.3542 55.5065 23.5051 55.5198 21.656 55.527ZM50.7684 33.7931C49.6514 34.0631 49.4529 34.9888 49.4795 35.9045C49.5488 38.2909 48.4014 39.8135 46.4095 40.8946C44.7131 41.8154 44.7216 41.9363 45.2536 43.8416C45.608 45.111 46.1572 46.3682 45.6297 47.728C45.4807 48.112 45.3286 48.4948 45.1381 48.9794C46.0527 48.9794 46.86 48.9198 47.6548 48.996C48.4648 49.0737 49.0448 48.7828 49.4922 48.1431C50.4236 46.8111 51.378 45.4943 52.2677 44.1341C53.9657 41.5383 55.6096 38.9059 57.3108 36.3123C57.7663 35.6177 58.5164 35.5313 59.0963 35.9798C59.5969 36.3669 59.6622 37.1421 59.248 37.7816C57.7092 40.1572 56.169 42.5318 54.6323 44.9087C53.7745 46.2355 52.9227 47.5662 52.0147 48.9784C53.9281 48.9784 55.7176 48.9813 57.507 48.9736C57.6794 48.9729 57.8671 48.9389 58.0214 48.8643C58.9603 48.4102 59.8889 47.9341 60.8261 47.4765C61.8333 46.9846 62.4031 46.2309 62.3426 45.0464C62.3133 44.4729 62.3445 43.896 62.3531 43.3207C62.3882 40.9693 63.986 39.6279 65.6478 38.4829C66.681 37.771 67.0398 37.551 66.7887 36.2928C66.7121 35.9089 66.6176 35.5238 66.4833 35.1573C65.9304 33.6487 65.9707 32.1428 66.4255 30.6199C66.6035 30.024 66.7169 29.4082 66.9243 28.5272C64.8557 29.8778 63.0843 29.8263 61.5384 27.8776C61.2577 28.4464 61.0851 28.7879 60.9198 29.133C60.1614 30.7151 59.0031 31.2045 57.3817 30.6146C57.1018 30.5128 56.8278 30.3874 56.5644 30.2471C56.1302 30.0157 55.817 30.041 55.718 30.6027C55.3452 32.7175 53.9363 33.5402 51.984 33.6849C51.6268 33.7113 51.2691 33.73 50.7684 33.7931ZM21.4376 31.0397C21.2794 31.221 21.1197 31.4011 20.9632 31.584C19.8424 32.8941 19.7345 33.8547 20.5523 35.3893C20.9921 36.2146 21.5551 36.9912 21.8667 37.8619C22.128 38.5919 22.3186 39.4734 22.162 40.2045C21.8803 41.5201 21.2723 42.7599 20.8779 44.0555C20.1695 46.3822 21.1803 48.2041 23.5115 48.8365C23.7424 48.8992 24.2439 48.7556 24.2797 48.6173C24.9746 45.9297 26.9907 44.4374 29.1029 43.0209C29.2639 42.913 29.4 42.7671 29.5602 42.628C29.4507 42.4767 29.3875 42.3756 29.311 42.2861C27.2214 39.8405 25.5884 37.1105 24.3699 34.1228C24.0471 33.3315 24.2626 32.7293 24.9754 32.3997C25.6507 32.0873 26.1688 32.309 26.5565 33.0963C26.7296 33.4479 26.8723 33.8148 27.0292 34.1746C28.1127 36.6594 29.5855 38.8854 31.3526 40.9215C31.7493 41.3786 32.1089 41.456 32.7337 41.3201C34.4987 40.9364 36.2902 40.6369 38.0862 40.4582C39.0055 40.3667 39.9567 40.6043 40.9444 40.698C40.7926 39.8806 40.6363 39.0612 40.4889 38.2401C40.052 35.8072 39.3576 35.1349 36.9347 34.8097C36.8461 34.7978 36.7547 34.8036 36.667 34.7874C34.9622 34.4716 33.3553 34.0428 32.483 32.2527C31.471 30.1759 31.4341 30.2047 29.1406 30.7208C27.5534 31.078 26.1894 30.7933 25.2114 29.3181C24.9042 28.8547 24.459 28.4853 23.9834 27.9719C23.1087 29.0177 22.3081 29.9749 21.4376 31.0397ZM30.5254 48.94C30.9632 48.575 31.4009 48.2101 31.8387 47.8451C33.3394 46.594 34.8541 45.364 36.7537 44.7711C37.5877 44.5108 38.3598 44.9093 38.4586 45.7116C38.5528 46.4765 38.1057 46.8998 37.4341 47.2171C36.4689 47.6732 35.5515 48.2333 34.6137 48.749C34.6545 48.8334 34.6953 48.9177 34.7361 49.0021C37.0042 49.0021 39.2723 49.0058 41.5403 48.9956C41.737 48.9947 41.9823 48.9613 42.1223 48.8426C43.4594 47.7089 43.4422 45.4692 42.1023 44.3572C40.9657 43.414 39.6097 43.041 38.1923 43.016C34.7621 42.9555 31.6743 44.0816 28.9346 46.1215C27.9999 46.8176 27.0618 47.6169 26.6627 48.985C27.9615 48.985 29.1712 48.985 30.5254 48.94ZM65.5976 41.8192C64.7757 42.4285 64.6748 43.3162 64.6868 44.2473C64.7047 45.64 64.7652 47.0407 63.8086 48.2136C63.6315 48.4307 63.4843 48.6729 63.2541 49.0026C64.4918 49.0026 65.5946 48.9421 66.6878 49.0199C67.7509 49.0956 68.6092 48.9769 68.9103 47.7407C68.957 47.5488 69.1073 47.3549 69.2608 47.2229C69.7166 46.8307 69.6823 46.4375 69.3783 45.9657C68.8333 45.12 68.6184 44.2083 68.9327 43.2073C69.104 42.662 68.8804 42.379 68.3301 42.2402C67.905 42.1329 67.4602 41.9657 67.1158 41.702C66.5962 41.3041 66.1644 41.2789 65.5976 41.8192ZM42.7352 37.0019C42.9013 37.9066 43.0673 38.8113 43.2588 39.8543C44.1942 39.2617 44.9843 38.7382 45.7971 38.2536C46.4246 37.8793 46.6757 37.3261 46.7663 36.6201C46.9187 35.433 47.126 34.2531 47.319 33.0136C45.9547 31.9585 43.6758 32.7248 42.0346 34.8684C42.256 35.5467 42.4704 36.2036 42.7352 37.0019Z" fill="#63E2FF" fill-opacity="0.79"/>
<path d="M69.923 56.761C69.7777 56.9496 69.6743 57.1977 69.4808 57.3181C65.1066 60.0409 60.7273 62.7567 56.3312 65.4482C55.9796 65.6635 55.4995 65.7923 55.0785 65.7938C48.9211 65.8155 42.7636 65.814 36.6063 65.7964C36.21 65.7953 35.7525 65.7067 35.4277 65.5082C31.0291 62.8201 26.6479 60.1069 22.268 57.3919C22.0552 57.26 21.8945 57.0537 21.7995 56.8293C35.3029 56.7779 48.7162 56.7803 62.1296 56.7796C64.7274 56.7795 67.3252 56.7675 69.923 56.761Z" fill="#63E2FF" fill-opacity="0.79"/>
<path d="M80.8227 59.9042C73.0078 82.1149 30.0257 95.4826 9.25451 59.9042" stroke="white" stroke-width="5"/>
<path d="M9.04886 27.8612C15.0129 9.55785 56.144 -10.4299 80.4114 26.5881" stroke="white" stroke-width="5"/>
</svg>
